# xmcd CD database file
#
# Track frame offsets:
#	150
#	80318
#	125368
#
# Disc length: 2831 seconds
#
# Revision: 1
# Processed by: cddbd v1.5.1PL0 Copyright (c) Steve Scherf et al.
# Submitted via: CDex 1.51
#
DISCID=190b0d03
DTITLE=The Gil Evans Orchestra featuring John Mc Laughlin - We Remember Jimi [CD2]
DYEAR=1986
DGENRE=Jazz
TTITLE0=Bud and Bird (Gil Evans)
TTITLE1=Goodbye Pork Pie Hat(Mingus)
TTITLE2=Eleven(Gil Evans)
EXTD=YEAR: 1986
EXTT0=
EXTT1=
EXTT2=
PLAYORDER=
